<svg width="196" height="26" viewBox="0 0 196 26" fill="none" xmlns="http://www.w3.org/2000/svg">
<path d="M19.1 3.79V25H13.94V16.15H5.9V25H0.77V3.79H5.9V12.01H13.94V3.79H19.1ZM30.4555 8.05C32.1155 8.05 33.5955 8.4 34.8955 9.1C36.2155 9.78 37.2455 10.77 37.9855 12.07C38.7455 13.37 39.1255 14.89 39.1255 16.63C39.1255 18.37 38.7455 19.89 37.9855 21.19C37.2455 22.49 36.2155 23.49 34.8955 24.19C33.5955 24.87 32.1155 25.21 30.4555 25.21C28.7955 25.21 27.3055 24.87 25.9855 24.19C24.6655 23.49 23.6255 22.49 22.8655 21.19C22.1255 19.89 21.7555 18.37 21.7555 16.63C21.7555 14.89 22.1255 13.37 22.8655 12.07C23.6255 10.77 24.6655 9.78 25.9855 9.1C27.3055 8.4 28.7955 8.05 30.4555 8.05ZM30.4555 12.49C29.4755 12.49 28.6455 12.85 27.9655 13.57C27.3055 14.27 26.9755 15.29 26.9755 16.63C26.9755 17.97 27.3055 18.99 27.9655 19.69C28.6455 20.39 29.4755 20.74 30.4555 20.74C31.4355 20.74 32.2555 20.39 32.9155 19.69C33.5755 18.99 33.9055 17.97 33.9055 16.63C33.9055 15.29 33.5755 14.27 32.9155 13.57C32.2555 12.85 31.4355 12.49 30.4555 12.49ZM46.9156 2.8V25H41.7856V2.8H46.9156ZM56.8175 8.05C58.0975 8.05 59.1975 8.34 60.1175 8.92C61.0375 9.5 61.7175 10.29 62.1575 11.29V8.26H67.2575V25H62.1575V21.97C61.7175 22.97 61.0375 23.76 60.1175 24.34C59.1975 24.92 58.0975 25.21 56.8175 25.21C55.4375 25.21 54.1975 24.87 53.0975 24.19C52.0175 23.49 51.1575 22.49 50.5175 21.19C49.8975 19.89 49.5875 18.37 49.5875 16.63C49.5875 14.87 49.8975 13.35 50.5175 12.07C51.1575 10.77 52.0175 9.78 53.0975 9.1C54.1975 8.4 55.4375 8.05 56.8175 8.05ZM58.4675 12.55C57.3675 12.55 56.4775 12.91 55.7975 13.63C55.1375 14.35 54.8075 15.35 54.8075 16.63C54.8075 17.91 55.1375 18.91 55.7975 19.63C56.4775 20.35 57.3675 20.71 58.4675 20.71C59.5475 20.71 60.4275 20.34 61.1075 19.6C61.8075 18.86 62.1575 17.87 62.1575 16.63C62.1575 15.37 61.8075 14.38 61.1075 13.66C60.4275 12.92 59.5475 12.55 58.4675 12.55ZM90.6254 3.79V7.87H81.9254V12.52H88.6454V16.42H81.9254V25H76.7954V3.79H90.6254ZM99.6202 8.05C100.9 8.05 102 8.34 102.92 8.92C103.84 9.5 104.52 10.29 104.96 11.29V8.26H110.06V25H104.96V21.97C104.52 22.97 103.84 23.76 102.92 24.34C102 24.92 100.9 25.21 99.6202 25.21C98.2402 25.21 97.0002 24.87 95.9002 24.19C94.8202 23.49 93.9602 22.49 93.3202 21.19C92.7002 19.89 92.3902 18.37 92.3902 16.63C92.3902 14.87 92.7002 13.35 93.3202 12.07C93.9602 10.77 94.8202 9.78 95.9002 9.1C97.0002 8.4 98.2402 8.05 99.6202 8.05ZM101.27 12.55C100.17 12.55 99.2802 12.91 98.6002 13.63C97.9402 14.35 97.6102 15.35 97.6102 16.63C97.6102 17.91 97.9402 18.91 98.6002 19.63C99.2802 20.35 100.17 20.71 101.27 20.71C102.35 20.71 103.23 20.34 103.91 19.6C104.61 18.86 104.96 17.87 104.96 16.63C104.96 15.37 104.61 14.38 103.91 13.66C103.23 12.92 102.35 12.55 101.27 12.55ZM119.682 8.05C121.802 8.05 123.492 8.58 124.752 9.64C126.032 10.7 126.832 12.1 127.152 13.84H122.352C122.212 13.16 121.892 12.63 121.392 12.25C120.912 11.85 120.302 11.65 119.562 11.65C118.982 11.65 118.542 11.78 118.242 12.04C117.942 12.28 117.792 12.63 117.792 13.09C117.792 13.61 118.062 14 118.602 14.26C119.162 14.52 120.032 14.78 121.212 15.04C122.492 15.34 123.542 15.65 124.362 15.97C125.182 16.27 125.892 16.77 126.492 17.47C127.092 18.17 127.392 19.11 127.392 20.29C127.392 21.25 127.132 22.1 126.612 22.84C126.092 23.58 125.342 24.16 124.362 24.58C123.382 25 122.222 25.21 120.882 25.21C118.622 25.21 116.812 24.71 115.452 23.71C114.092 22.71 113.262 21.28 112.962 19.42H117.912C117.992 20.14 118.292 20.69 118.812 21.07C119.352 21.45 120.042 21.64 120.882 21.64C121.462 21.64 121.902 21.51 122.202 21.25C122.502 20.97 122.652 20.61 122.652 20.17C122.652 19.59 122.372 19.18 121.812 18.94C121.272 18.68 120.382 18.41 119.142 18.13C117.902 17.87 116.882 17.59 116.082 17.29C115.282 16.99 114.592 16.51 114.012 15.85C113.432 15.17 113.142 14.25 113.142 13.09C113.142 11.59 113.712 10.38 114.852 9.46C115.992 8.52 117.602 8.05 119.682 8.05ZM140.853 8.08C142.773 8.08 144.293 8.72 145.413 10C146.553 11.28 147.123 13.04 147.123 15.28V25H141.993V15.88C141.993 14.76 141.693 13.89 141.093 13.27C140.513 12.63 139.733 12.31 138.753 12.31C137.713 12.31 136.883 12.64 136.263 13.3C135.663 13.96 135.363 14.9 135.363 16.12V25H130.233V2.8H135.363V11.32C135.843 10.32 136.553 9.53 137.493 8.95C138.453 8.37 139.573 8.08 140.853 8.08ZM150.026 3.55C150.026 2.77 150.306 2.13 150.866 1.63C151.426 1.11 152.166 0.849998 153.086 0.849998C154.006 0.849998 154.746 1.11 155.306 1.63C155.866 2.13 156.146 2.77 156.146 3.55C156.146 4.31 155.866 4.95 155.306 5.47C154.746 5.97 154.006 6.22 153.086 6.22C152.166 6.22 151.426 5.97 150.866 5.47C150.306 4.95 150.026 4.31 150.026 3.55ZM155.636 8.26V25H150.506V8.26H155.636ZM167.008 8.05C168.668 8.05 170.148 8.4 171.448 9.1C172.768 9.78 173.798 10.77 174.538 12.07C175.298 13.37 175.678 14.89 175.678 16.63C175.678 18.37 175.298 19.89 174.538 21.19C173.798 22.49 172.768 23.49 171.448 24.19C170.148 24.87 168.668 25.21 167.008 25.21C165.348 25.21 163.858 24.87 162.538 24.19C161.218 23.49 160.178 22.49 159.418 21.19C158.678 19.89 158.308 18.37 158.308 16.63C158.308 14.89 158.678 13.37 159.418 12.07C160.178 10.77 161.218 9.78 162.538 9.1C163.858 8.4 165.348 8.05 167.008 8.05ZM167.008 12.49C166.028 12.49 165.198 12.85 164.518 13.57C163.858 14.27 163.528 15.29 163.528 16.63C163.528 17.97 163.858 18.99 164.518 19.69C165.198 20.39 166.028 20.74 167.008 20.74C167.988 20.74 168.808 20.39 169.468 19.69C170.128 18.99 170.458 17.97 170.458 16.63C170.458 15.29 170.128 14.27 169.468 13.57C168.808 12.85 167.988 12.49 167.008 12.49ZM188.958 8.08C190.878 8.08 192.398 8.72 193.518 10C194.658 11.28 195.228 13.04 195.228 15.28V25H190.098V15.88C190.098 14.76 189.798 13.89 189.198 13.27C188.618 12.63 187.838 12.31 186.858 12.31C185.818 12.31 184.988 12.64 184.368 13.3C183.768 13.96 183.468 14.9 183.468 16.12V25H178.338V8.26H183.468V11.32C183.948 10.32 184.658 9.53 185.598 8.95C186.558 8.37 187.678 8.08 188.958 8.08Z" fill="#91916C"/>
</svg>
